<mxfile host="app.diagrams.net" modified="2024-05-14T17:18:37.940Z" agent="Mozilla/5.0 (Windows NT 10.0; Win64; x64) AppleWebKit/537.36 (KHTML, like Gecko) Chrome/124.0.0.0 Safari/537.36" etag="JFoOf7Hy6wk8sSYbNx-w" version="24.4.0" type="github">
  <diagram name="Página-1" id="MhpoRTlKBT_1-dFfy9NS">
    <mxGraphModel dx="4780" dy="2613" grid="1" gridSize="10" guides="1" tooltips="1" connect="1" arrows="1" fold="1" page="1" pageScale="1" pageWidth="827" pageHeight="1169" math="0" shadow="0">
      <root>
        <mxCell id="0" />
        <mxCell id="1" parent="0" />
        <mxCell id="9Mkc4Z1S04Rf9FDKD0FJ-1" value="N" style="edgeStyle=none;rounded=0;orthogonalLoop=1;jettySize=auto;html=1;strokeColor=default;align=center;verticalAlign=middle;fontFamily=Helvetica;fontSize=11;fontColor=default;labelBackgroundColor=default;endArrow=none;endFill=0;entryX=0;entryY=0.5;entryDx=0;entryDy=0;" edge="1" parent="1" source="9Mkc4Z1S04Rf9FDKD0FJ-3" target="9Mkc4Z1S04Rf9FDKD0FJ-134">
          <mxGeometry x="0.0233" y="10" relative="1" as="geometry">
            <mxPoint x="1880" y="820" as="targetPoint" />
            <mxPoint as="offset" />
          </mxGeometry>
        </mxCell>
        <mxCell id="9Mkc4Z1S04Rf9FDKD0FJ-2" value="N" style="edgeStyle=none;rounded=0;orthogonalLoop=1;jettySize=auto;html=1;strokeColor=default;align=center;verticalAlign=middle;fontFamily=Helvetica;fontSize=11;fontColor=default;labelBackgroundColor=default;endArrow=none;endFill=0;" edge="1" parent="1" source="9Mkc4Z1S04Rf9FDKD0FJ-3" target="9Mkc4Z1S04Rf9FDKD0FJ-135">
          <mxGeometry x="0.0345" y="11" relative="1" as="geometry">
            <mxPoint as="offset" />
          </mxGeometry>
        </mxCell>
        <mxCell id="9Mkc4Z1S04Rf9FDKD0FJ-3" value="INSUMO(ITEN)" style="rounded=0;whiteSpace=wrap;html=1;direction=east;" vertex="1" parent="1">
          <mxGeometry x="1560" y="790" width="120" height="60" as="geometry" />
        </mxCell>
        <mxCell id="9Mkc4Z1S04Rf9FDKD0FJ-4" value="FORENECEDOR" style="rounded=0;whiteSpace=wrap;html=1;" vertex="1" parent="1">
          <mxGeometry x="1560" y="340" width="120" height="60" as="geometry" />
        </mxCell>
        <mxCell id="9Mkc4Z1S04Rf9FDKD0FJ-5" value="PEDIDO DE COMPRA" style="rounded=0;whiteSpace=wrap;html=1;" vertex="1" parent="1">
          <mxGeometry x="2200" y="790" width="120" height="60" as="geometry" />
        </mxCell>
        <mxCell id="9Mkc4Z1S04Rf9FDKD0FJ-6" value="N" style="edgeStyle=none;rounded=0;orthogonalLoop=1;jettySize=auto;html=1;strokeColor=default;align=center;verticalAlign=middle;fontFamily=Helvetica;fontSize=11;fontColor=default;labelBackgroundColor=default;endArrow=none;endFill=0;entryX=0.5;entryY=1;entryDx=0;entryDy=0;" edge="1" parent="1" source="9Mkc4Z1S04Rf9FDKD0FJ-7" target="9Mkc4Z1S04Rf9FDKD0FJ-140">
          <mxGeometry x="0.0286" y="10" relative="1" as="geometry">
            <mxPoint x="270" y="810" as="targetPoint" />
            <mxPoint as="offset" />
          </mxGeometry>
        </mxCell>
        <mxCell id="9Mkc4Z1S04Rf9FDKD0FJ-7" value="CLIENTE" style="rounded=0;whiteSpace=wrap;html=1;" vertex="1" parent="1">
          <mxGeometry x="210" y="980" width="120" height="60" as="geometry" />
        </mxCell>
        <mxCell id="9Mkc4Z1S04Rf9FDKD0FJ-8" style="edgeStyle=none;rounded=0;orthogonalLoop=1;jettySize=auto;html=1;strokeColor=default;align=center;verticalAlign=middle;fontFamily=Helvetica;fontSize=11;fontColor=default;labelBackgroundColor=default;endArrow=none;endFill=0;entryX=0.659;entryY=0.963;entryDx=0;entryDy=0;entryPerimeter=0;" edge="1" parent="1" source="9Mkc4Z1S04Rf9FDKD0FJ-11" target="9Mkc4Z1S04Rf9FDKD0FJ-74">
          <mxGeometry relative="1" as="geometry">
            <mxPoint x="1060" y="250" as="targetPoint" />
          </mxGeometry>
        </mxCell>
        <mxCell id="9Mkc4Z1S04Rf9FDKD0FJ-9" style="edgeStyle=none;rounded=0;orthogonalLoop=1;jettySize=auto;html=1;strokeColor=default;align=center;verticalAlign=middle;fontFamily=Helvetica;fontSize=11;fontColor=default;labelBackgroundColor=default;endArrow=none;endFill=0;entryX=0.33;entryY=0.974;entryDx=0;entryDy=0;entryPerimeter=0;" edge="1" parent="1" source="9Mkc4Z1S04Rf9FDKD0FJ-11" target="9Mkc4Z1S04Rf9FDKD0FJ-93">
          <mxGeometry relative="1" as="geometry">
            <mxPoint x="1280" y="310" as="targetPoint" />
          </mxGeometry>
        </mxCell>
        <mxCell id="9Mkc4Z1S04Rf9FDKD0FJ-10" value="1" style="edgeStyle=none;rounded=0;orthogonalLoop=1;jettySize=auto;html=1;strokeColor=default;align=center;verticalAlign=middle;fontFamily=Helvetica;fontSize=11;fontColor=default;labelBackgroundColor=default;endArrow=none;endFill=0;" edge="1" parent="1" source="9Mkc4Z1S04Rf9FDKD0FJ-11" target="9Mkc4Z1S04Rf9FDKD0FJ-135">
          <mxGeometry x="0.0098" y="-14" relative="1" as="geometry">
            <mxPoint x="1370" y="530" as="targetPoint" />
            <mxPoint as="offset" />
          </mxGeometry>
        </mxCell>
        <mxCell id="9Mkc4Z1S04Rf9FDKD0FJ-11" value="ESTOQUE" style="rounded=0;whiteSpace=wrap;html=1;" vertex="1" parent="1">
          <mxGeometry x="1150" y="380" width="120" height="60" as="geometry" />
        </mxCell>
        <mxCell id="9Mkc4Z1S04Rf9FDKD0FJ-12" style="rounded=0;orthogonalLoop=1;jettySize=auto;html=1;endArrow=none;endFill=0;entryX=0.25;entryY=1;entryDx=0;entryDy=0;" edge="1" parent="1" source="9Mkc4Z1S04Rf9FDKD0FJ-13" target="9Mkc4Z1S04Rf9FDKD0FJ-3">
          <mxGeometry relative="1" as="geometry">
            <mxPoint x="1590" y="1050" as="targetPoint" />
          </mxGeometry>
        </mxCell>
        <mxCell id="9Mkc4Z1S04Rf9FDKD0FJ-13" value="ID_PRODUTO" style="ellipse;whiteSpace=wrap;html=1;align=center;fontStyle=4;direction=east;" vertex="1" parent="1">
          <mxGeometry x="1390" y="845" width="100" height="40" as="geometry" />
        </mxCell>
        <mxCell id="9Mkc4Z1S04Rf9FDKD0FJ-14" style="edgeStyle=none;rounded=0;orthogonalLoop=1;jettySize=auto;html=1;strokeColor=default;align=center;verticalAlign=middle;fontFamily=Helvetica;fontSize=11;fontColor=default;labelBackgroundColor=default;endArrow=none;endFill=0;entryX=0.425;entryY=0.989;entryDx=0;entryDy=0;entryPerimeter=0;" edge="1" parent="1" source="9Mkc4Z1S04Rf9FDKD0FJ-15" target="9Mkc4Z1S04Rf9FDKD0FJ-3">
          <mxGeometry relative="1" as="geometry">
            <mxPoint x="1610.04" y="1050" as="targetPoint" />
          </mxGeometry>
        </mxCell>
        <mxCell id="9Mkc4Z1S04Rf9FDKD0FJ-15" value="NOME" style="ellipse;whiteSpace=wrap;html=1;align=center;fontFamily=Helvetica;fontSize=11;fontColor=default;labelBackgroundColor=default;direction=east;" vertex="1" parent="1">
          <mxGeometry x="1400" y="900" width="100" height="40" as="geometry" />
        </mxCell>
        <mxCell id="9Mkc4Z1S04Rf9FDKD0FJ-16" style="edgeStyle=none;rounded=0;orthogonalLoop=1;jettySize=auto;html=1;strokeColor=default;align=center;verticalAlign=middle;fontFamily=Helvetica;fontSize=11;fontColor=default;labelBackgroundColor=default;endArrow=none;endFill=0;" edge="1" parent="1" source="9Mkc4Z1S04Rf9FDKD0FJ-17" target="9Mkc4Z1S04Rf9FDKD0FJ-3">
          <mxGeometry relative="1" as="geometry">
            <mxPoint x="1627.5" y="1050" as="targetPoint" />
          </mxGeometry>
        </mxCell>
        <mxCell id="9Mkc4Z1S04Rf9FDKD0FJ-17" value="DESCRIÇÃO" style="ellipse;whiteSpace=wrap;html=1;align=center;fontFamily=Helvetica;fontSize=11;fontColor=default;labelBackgroundColor=default;direction=east;" vertex="1" parent="1">
          <mxGeometry x="1500" y="980" width="100" height="40" as="geometry" />
        </mxCell>
        <mxCell id="9Mkc4Z1S04Rf9FDKD0FJ-18" style="edgeStyle=none;rounded=0;orthogonalLoop=1;jettySize=auto;html=1;strokeColor=default;align=center;verticalAlign=middle;fontFamily=Helvetica;fontSize=11;fontColor=default;labelBackgroundColor=default;endArrow=none;endFill=0;" edge="1" parent="1" source="9Mkc4Z1S04Rf9FDKD0FJ-19" target="9Mkc4Z1S04Rf9FDKD0FJ-3">
          <mxGeometry relative="1" as="geometry">
            <mxPoint x="1647.6923076923076" y="1050" as="targetPoint" />
          </mxGeometry>
        </mxCell>
        <mxCell id="9Mkc4Z1S04Rf9FDKD0FJ-19" value="PREÇO" style="ellipse;whiteSpace=wrap;html=1;align=center;fontFamily=Helvetica;fontSize=11;fontColor=default;labelBackgroundColor=default;direction=east;" vertex="1" parent="1">
          <mxGeometry x="1630" y="980" width="100" height="40" as="geometry" />
        </mxCell>
        <mxCell id="9Mkc4Z1S04Rf9FDKD0FJ-20" style="edgeStyle=none;rounded=0;orthogonalLoop=1;jettySize=auto;html=1;strokeColor=default;align=center;verticalAlign=middle;fontFamily=Helvetica;fontSize=11;fontColor=default;labelBackgroundColor=default;endArrow=none;endFill=0;exitX=0.187;exitY=0.864;exitDx=0;exitDy=0;exitPerimeter=0;" edge="1" parent="1" source="9Mkc4Z1S04Rf9FDKD0FJ-21" target="9Mkc4Z1S04Rf9FDKD0FJ-3">
          <mxGeometry relative="1" as="geometry">
            <mxPoint x="1784.6446609406726" y="984.1421356237308" as="sourcePoint" />
            <mxPoint x="1667.203075291623" y="1050" as="targetPoint" />
          </mxGeometry>
        </mxCell>
        <mxCell id="9Mkc4Z1S04Rf9FDKD0FJ-21" value="&lt;font style=&quot;font-size: 8px;&quot;&gt;QUANTIDADE ESTOQUE&lt;/font&gt;" style="ellipse;whiteSpace=wrap;html=1;align=center;fontFamily=Helvetica;fontSize=11;fontColor=default;labelBackgroundColor=default;direction=east;" vertex="1" parent="1">
          <mxGeometry x="1710" y="950" width="100" height="40" as="geometry" />
        </mxCell>
        <mxCell id="9Mkc4Z1S04Rf9FDKD0FJ-22" style="edgeStyle=none;rounded=0;orthogonalLoop=1;jettySize=auto;html=1;strokeColor=default;align=center;verticalAlign=middle;fontFamily=Helvetica;fontSize=11;fontColor=default;labelBackgroundColor=default;endArrow=none;endFill=0;entryX=0;entryY=0.75;entryDx=0;entryDy=0;" edge="1" parent="1" source="9Mkc4Z1S04Rf9FDKD0FJ-23" target="9Mkc4Z1S04Rf9FDKD0FJ-3">
          <mxGeometry relative="1" as="geometry">
            <mxPoint x="1567.0800000000004" y="1049.8799999999997" as="targetPoint" />
          </mxGeometry>
        </mxCell>
        <mxCell id="9Mkc4Z1S04Rf9FDKD0FJ-23" value="FORNECEDOR" style="ellipse;whiteSpace=wrap;html=1;align=center;fontFamily=Helvetica;fontSize=11;fontColor=default;labelBackgroundColor=default;direction=east;" vertex="1" parent="1">
          <mxGeometry x="1400" y="790" width="100" height="40" as="geometry" />
        </mxCell>
        <mxCell id="9Mkc4Z1S04Rf9FDKD0FJ-24" style="edgeStyle=none;rounded=0;orthogonalLoop=1;jettySize=auto;html=1;strokeColor=default;align=center;verticalAlign=middle;fontFamily=Helvetica;fontSize=11;fontColor=default;labelBackgroundColor=default;endArrow=none;endFill=0;entryX=0.39;entryY=1.06;entryDx=0;entryDy=0;entryPerimeter=0;" edge="1" parent="1" source="9Mkc4Z1S04Rf9FDKD0FJ-25" target="9Mkc4Z1S04Rf9FDKD0FJ-3">
          <mxGeometry relative="1" as="geometry">
            <mxPoint x="1620" y="850" as="targetPoint" />
          </mxGeometry>
        </mxCell>
        <mxCell id="9Mkc4Z1S04Rf9FDKD0FJ-25" value="&lt;font style=&quot;font-size: 10px;&quot;&gt;DATA DE VALIDADE&lt;/font&gt;" style="ellipse;whiteSpace=wrap;html=1;align=center;fontFamily=Helvetica;fontSize=11;fontColor=default;labelBackgroundColor=default;direction=east;" vertex="1" parent="1">
          <mxGeometry x="1430" y="940" width="100" height="40" as="geometry" />
        </mxCell>
        <mxCell id="9Mkc4Z1S04Rf9FDKD0FJ-26" style="edgeStyle=none;rounded=0;orthogonalLoop=1;jettySize=auto;html=1;entryX=0.25;entryY=0;entryDx=0;entryDy=0;strokeColor=default;align=center;verticalAlign=middle;fontFamily=Helvetica;fontSize=11;fontColor=default;labelBackgroundColor=default;endArrow=none;endFill=0;" edge="1" parent="1" source="9Mkc4Z1S04Rf9FDKD0FJ-27" target="9Mkc4Z1S04Rf9FDKD0FJ-4">
          <mxGeometry relative="1" as="geometry" />
        </mxCell>
        <mxCell id="9Mkc4Z1S04Rf9FDKD0FJ-27" value="&lt;font style=&quot;font-size: 10px;&quot;&gt;ID_FORNECEDOR&lt;/font&gt;" style="ellipse;whiteSpace=wrap;html=1;align=center;fontStyle=4;" vertex="1" parent="1">
          <mxGeometry x="1390" y="260" width="100" height="40" as="geometry" />
        </mxCell>
        <mxCell id="9Mkc4Z1S04Rf9FDKD0FJ-28" style="edgeStyle=none;rounded=0;orthogonalLoop=1;jettySize=auto;html=1;strokeColor=default;align=center;verticalAlign=middle;fontFamily=Helvetica;fontSize=11;fontColor=default;labelBackgroundColor=default;endArrow=none;endFill=0;" edge="1" parent="1" source="9Mkc4Z1S04Rf9FDKD0FJ-29" target="9Mkc4Z1S04Rf9FDKD0FJ-4">
          <mxGeometry relative="1" as="geometry" />
        </mxCell>
        <mxCell id="9Mkc4Z1S04Rf9FDKD0FJ-29" value="NOME" style="ellipse;whiteSpace=wrap;html=1;align=center;fontFamily=Helvetica;fontSize=11;fontColor=default;labelBackgroundColor=default;" vertex="1" parent="1">
          <mxGeometry x="1460" y="230" width="100" height="40" as="geometry" />
        </mxCell>
        <mxCell id="9Mkc4Z1S04Rf9FDKD0FJ-30" style="edgeStyle=none;rounded=0;orthogonalLoop=1;jettySize=auto;html=1;strokeColor=default;align=center;verticalAlign=middle;fontFamily=Helvetica;fontSize=11;fontColor=default;labelBackgroundColor=default;endArrow=none;endFill=0;" edge="1" parent="1" source="9Mkc4Z1S04Rf9FDKD0FJ-31" target="9Mkc4Z1S04Rf9FDKD0FJ-4">
          <mxGeometry relative="1" as="geometry" />
        </mxCell>
        <mxCell id="9Mkc4Z1S04Rf9FDKD0FJ-31" value="TELEFONE" style="ellipse;shape=doubleEllipse;margin=3;whiteSpace=wrap;html=1;align=center;fontFamily=Helvetica;fontSize=11;fontColor=default;labelBackgroundColor=default;" vertex="1" parent="1">
          <mxGeometry x="1570" y="210" width="100" height="40" as="geometry" />
        </mxCell>
        <mxCell id="9Mkc4Z1S04Rf9FDKD0FJ-32" style="edgeStyle=none;rounded=0;orthogonalLoop=1;jettySize=auto;html=1;entryX=0.75;entryY=0;entryDx=0;entryDy=0;strokeColor=default;align=center;verticalAlign=middle;fontFamily=Helvetica;fontSize=11;fontColor=default;labelBackgroundColor=default;endArrow=none;endFill=0;" edge="1" parent="1" source="9Mkc4Z1S04Rf9FDKD0FJ-34" target="9Mkc4Z1S04Rf9FDKD0FJ-4">
          <mxGeometry relative="1" as="geometry" />
        </mxCell>
        <mxCell id="9Mkc4Z1S04Rf9FDKD0FJ-33" style="edgeStyle=none;rounded=0;orthogonalLoop=1;jettySize=auto;html=1;strokeColor=default;align=center;verticalAlign=middle;fontFamily=Helvetica;fontSize=11;fontColor=default;labelBackgroundColor=default;endArrow=none;endFill=0;entryX=0.5;entryY=1;entryDx=0;entryDy=0;exitX=0.678;exitY=0.066;exitDx=0;exitDy=0;exitPerimeter=0;" edge="1" parent="1" source="9Mkc4Z1S04Rf9FDKD0FJ-34" target="9Mkc4Z1S04Rf9FDKD0FJ-35">
          <mxGeometry relative="1" as="geometry">
            <mxPoint x="1730" y="160" as="targetPoint" />
          </mxGeometry>
        </mxCell>
        <mxCell id="9Mkc4Z1S04Rf9FDKD0FJ-34" value="ENDEREÇO" style="ellipse;whiteSpace=wrap;html=1;align=center;fontFamily=Helvetica;fontSize=11;fontColor=default;labelBackgroundColor=default;" vertex="1" parent="1">
          <mxGeometry x="1660" y="240" width="100" height="40" as="geometry" />
        </mxCell>
        <mxCell id="9Mkc4Z1S04Rf9FDKD0FJ-35" value="NUMERO" style="ellipse;whiteSpace=wrap;html=1;align=center;fontFamily=Helvetica;fontSize=11;fontColor=default;labelBackgroundColor=default;" vertex="1" parent="1">
          <mxGeometry x="1680" y="110" width="100" height="40" as="geometry" />
        </mxCell>
        <mxCell id="9Mkc4Z1S04Rf9FDKD0FJ-36" style="edgeStyle=none;rounded=0;orthogonalLoop=1;jettySize=auto;html=1;entryX=1;entryY=0;entryDx=0;entryDy=0;strokeColor=default;align=center;verticalAlign=middle;fontFamily=Helvetica;fontSize=11;fontColor=default;labelBackgroundColor=default;endArrow=none;endFill=0;" edge="1" parent="1" source="9Mkc4Z1S04Rf9FDKD0FJ-37" target="9Mkc4Z1S04Rf9FDKD0FJ-34">
          <mxGeometry relative="1" as="geometry" />
        </mxCell>
        <mxCell id="9Mkc4Z1S04Rf9FDKD0FJ-37" value="CEP" style="ellipse;whiteSpace=wrap;html=1;align=center;fontFamily=Helvetica;fontSize=11;fontColor=default;labelBackgroundColor=default;" vertex="1" parent="1">
          <mxGeometry x="1790" y="110" width="100" height="40" as="geometry" />
        </mxCell>
        <mxCell id="9Mkc4Z1S04Rf9FDKD0FJ-38" value="ESTADO" style="ellipse;whiteSpace=wrap;html=1;align=center;fontFamily=Helvetica;fontSize=11;fontColor=default;labelBackgroundColor=default;" vertex="1" parent="1">
          <mxGeometry x="1850" y="150" width="100" height="40" as="geometry" />
        </mxCell>
        <mxCell id="9Mkc4Z1S04Rf9FDKD0FJ-39" value="CIDADE" style="ellipse;whiteSpace=wrap;html=1;align=center;fontFamily=Helvetica;fontSize=11;fontColor=default;labelBackgroundColor=default;" vertex="1" parent="1">
          <mxGeometry x="1850" y="200" width="100" height="40" as="geometry" />
        </mxCell>
        <mxCell id="9Mkc4Z1S04Rf9FDKD0FJ-40" style="edgeStyle=none;rounded=0;orthogonalLoop=1;jettySize=auto;html=1;entryX=0.956;entryY=0.321;entryDx=0;entryDy=0;entryPerimeter=0;strokeColor=default;align=center;verticalAlign=middle;fontFamily=Helvetica;fontSize=11;fontColor=default;labelBackgroundColor=default;endArrow=none;endFill=0;" edge="1" parent="1" source="9Mkc4Z1S04Rf9FDKD0FJ-39" target="9Mkc4Z1S04Rf9FDKD0FJ-34">
          <mxGeometry relative="1" as="geometry" />
        </mxCell>
        <mxCell id="9Mkc4Z1S04Rf9FDKD0FJ-41" style="edgeStyle=none;rounded=0;orthogonalLoop=1;jettySize=auto;html=1;entryX=0.928;entryY=0.205;entryDx=0;entryDy=0;entryPerimeter=0;strokeColor=default;align=center;verticalAlign=middle;fontFamily=Helvetica;fontSize=11;fontColor=default;labelBackgroundColor=default;endArrow=none;endFill=0;" edge="1" parent="1" source="9Mkc4Z1S04Rf9FDKD0FJ-38" target="9Mkc4Z1S04Rf9FDKD0FJ-34">
          <mxGeometry relative="1" as="geometry" />
        </mxCell>
        <mxCell id="9Mkc4Z1S04Rf9FDKD0FJ-42" style="edgeStyle=none;rounded=0;orthogonalLoop=1;jettySize=auto;html=1;strokeColor=default;align=center;verticalAlign=middle;fontFamily=Helvetica;fontSize=11;fontColor=default;labelBackgroundColor=default;endArrow=none;endFill=0;" edge="1" parent="1" source="9Mkc4Z1S04Rf9FDKD0FJ-43" target="9Mkc4Z1S04Rf9FDKD0FJ-34">
          <mxGeometry relative="1" as="geometry" />
        </mxCell>
        <mxCell id="9Mkc4Z1S04Rf9FDKD0FJ-43" value="BAIRRO" style="ellipse;whiteSpace=wrap;html=1;align=center;fontFamily=Helvetica;fontSize=11;fontColor=default;labelBackgroundColor=default;" vertex="1" parent="1">
          <mxGeometry x="1570" y="110" width="100" height="40" as="geometry" />
        </mxCell>
        <mxCell id="9Mkc4Z1S04Rf9FDKD0FJ-44" style="edgeStyle=none;rounded=0;orthogonalLoop=1;jettySize=auto;html=1;entryX=1;entryY=0.5;entryDx=0;entryDy=0;strokeColor=default;align=center;verticalAlign=middle;fontFamily=Helvetica;fontSize=11;fontColor=default;labelBackgroundColor=default;endArrow=none;endFill=0;" edge="1" parent="1" source="9Mkc4Z1S04Rf9FDKD0FJ-46" target="9Mkc4Z1S04Rf9FDKD0FJ-65">
          <mxGeometry relative="1" as="geometry" />
        </mxCell>
        <mxCell id="9Mkc4Z1S04Rf9FDKD0FJ-45" value="N" style="edgeStyle=none;rounded=0;orthogonalLoop=1;jettySize=auto;html=1;entryX=0.5;entryY=1;entryDx=0;entryDy=0;strokeColor=default;align=center;verticalAlign=middle;fontFamily=Helvetica;fontSize=11;fontColor=default;labelBackgroundColor=default;endArrow=none;endFill=0;" edge="1" parent="1" source="9Mkc4Z1S04Rf9FDKD0FJ-46" target="9Mkc4Z1S04Rf9FDKD0FJ-138">
          <mxGeometry x="0.0476" relative="1" as="geometry">
            <mxPoint as="offset" />
          </mxGeometry>
        </mxCell>
        <mxCell id="9Mkc4Z1S04Rf9FDKD0FJ-46" value="COLABORADOR" style="rounded=0;whiteSpace=wrap;html=1;" vertex="1" parent="1">
          <mxGeometry x="1150" y="970" width="120" height="60" as="geometry" />
        </mxCell>
        <mxCell id="9Mkc4Z1S04Rf9FDKD0FJ-47" value="&lt;font style=&quot;vertical-align: inherit;&quot;&gt;&lt;font style=&quot;vertical-align: inherit;&quot;&gt;SALA&lt;/font&gt;&lt;/font&gt;" style="rounded=0;whiteSpace=wrap;html=1;" vertex="1" parent="1">
          <mxGeometry x="670" y="1160" width="120" height="60" as="geometry" />
        </mxCell>
        <mxCell id="9Mkc4Z1S04Rf9FDKD0FJ-48" value="UNIDADE" style="rounded=0;whiteSpace=wrap;html=1;" vertex="1" parent="1">
          <mxGeometry x="210" y="510" width="120" height="60" as="geometry" />
        </mxCell>
        <mxCell id="9Mkc4Z1S04Rf9FDKD0FJ-49" style="edgeStyle=none;rounded=0;orthogonalLoop=1;jettySize=auto;html=1;entryX=0.25;entryY=0;entryDx=0;entryDy=0;strokeColor=default;align=center;verticalAlign=middle;fontFamily=Helvetica;fontSize=11;fontColor=default;labelBackgroundColor=default;endArrow=none;endFill=0;" edge="1" parent="1" source="9Mkc4Z1S04Rf9FDKD0FJ-50" target="9Mkc4Z1S04Rf9FDKD0FJ-48">
          <mxGeometry relative="1" as="geometry" />
        </mxCell>
        <mxCell id="9Mkc4Z1S04Rf9FDKD0FJ-50" value="&lt;span style=&quot;font-size: 10px;&quot;&gt;CNPJ&lt;/span&gt;" style="ellipse;whiteSpace=wrap;html=1;align=center;fontStyle=4;" vertex="1" parent="1">
          <mxGeometry x="40" y="425" width="100" height="40" as="geometry" />
        </mxCell>
        <mxCell id="9Mkc4Z1S04Rf9FDKD0FJ-51" style="edgeStyle=none;rounded=0;orthogonalLoop=1;jettySize=auto;html=1;strokeColor=default;align=center;verticalAlign=middle;fontFamily=Helvetica;fontSize=11;fontColor=default;labelBackgroundColor=default;endArrow=none;endFill=0;" edge="1" parent="1" source="9Mkc4Z1S04Rf9FDKD0FJ-52" target="9Mkc4Z1S04Rf9FDKD0FJ-48">
          <mxGeometry relative="1" as="geometry" />
        </mxCell>
        <mxCell id="9Mkc4Z1S04Rf9FDKD0FJ-52" value="NOME" style="ellipse;whiteSpace=wrap;html=1;align=center;fontFamily=Helvetica;fontSize=11;fontColor=default;labelBackgroundColor=default;" vertex="1" parent="1">
          <mxGeometry x="120" y="365" width="100" height="40" as="geometry" />
        </mxCell>
        <mxCell id="9Mkc4Z1S04Rf9FDKD0FJ-53" style="edgeStyle=none;rounded=0;orthogonalLoop=1;jettySize=auto;html=1;strokeColor=default;align=center;verticalAlign=middle;fontFamily=Helvetica;fontSize=11;fontColor=default;labelBackgroundColor=default;endArrow=none;endFill=0;" edge="1" parent="1" source="9Mkc4Z1S04Rf9FDKD0FJ-54" target="9Mkc4Z1S04Rf9FDKD0FJ-48">
          <mxGeometry relative="1" as="geometry" />
        </mxCell>
        <mxCell id="9Mkc4Z1S04Rf9FDKD0FJ-54" value="TELEFONE" style="ellipse;shape=doubleEllipse;margin=3;whiteSpace=wrap;html=1;align=center;fontFamily=Helvetica;fontSize=11;fontColor=default;labelBackgroundColor=default;" vertex="1" parent="1">
          <mxGeometry x="220" y="375" width="100" height="40" as="geometry" />
        </mxCell>
        <mxCell id="9Mkc4Z1S04Rf9FDKD0FJ-55" style="edgeStyle=none;rounded=0;orthogonalLoop=1;jettySize=auto;html=1;entryX=0.75;entryY=0;entryDx=0;entryDy=0;strokeColor=default;align=center;verticalAlign=middle;fontFamily=Helvetica;fontSize=11;fontColor=default;labelBackgroundColor=default;endArrow=none;endFill=0;" edge="1" parent="1" source="9Mkc4Z1S04Rf9FDKD0FJ-57" target="9Mkc4Z1S04Rf9FDKD0FJ-48">
          <mxGeometry relative="1" as="geometry" />
        </mxCell>
        <mxCell id="9Mkc4Z1S04Rf9FDKD0FJ-56" style="edgeStyle=none;rounded=0;orthogonalLoop=1;jettySize=auto;html=1;strokeColor=default;align=center;verticalAlign=middle;fontFamily=Helvetica;fontSize=11;fontColor=default;labelBackgroundColor=default;endArrow=none;endFill=0;entryX=0.5;entryY=1;entryDx=0;entryDy=0;exitX=0.678;exitY=0.066;exitDx=0;exitDy=0;exitPerimeter=0;" edge="1" parent="1" source="9Mkc4Z1S04Rf9FDKD0FJ-57" target="9Mkc4Z1S04Rf9FDKD0FJ-58">
          <mxGeometry relative="1" as="geometry">
            <mxPoint x="380" y="325" as="targetPoint" />
          </mxGeometry>
        </mxCell>
        <mxCell id="9Mkc4Z1S04Rf9FDKD0FJ-57" value="ENDEREÇO" style="ellipse;whiteSpace=wrap;html=1;align=center;fontFamily=Helvetica;fontSize=11;fontColor=default;labelBackgroundColor=default;" vertex="1" parent="1">
          <mxGeometry x="310" y="405" width="100" height="40" as="geometry" />
        </mxCell>
        <mxCell id="9Mkc4Z1S04Rf9FDKD0FJ-58" value="NUMERO" style="ellipse;whiteSpace=wrap;html=1;align=center;fontFamily=Helvetica;fontSize=11;fontColor=default;labelBackgroundColor=default;" vertex="1" parent="1">
          <mxGeometry x="330" y="275" width="100" height="40" as="geometry" />
        </mxCell>
        <mxCell id="9Mkc4Z1S04Rf9FDKD0FJ-59" style="edgeStyle=none;rounded=0;orthogonalLoop=1;jettySize=auto;html=1;entryX=1;entryY=0;entryDx=0;entryDy=0;strokeColor=default;align=center;verticalAlign=middle;fontFamily=Helvetica;fontSize=11;fontColor=default;labelBackgroundColor=default;endArrow=none;endFill=0;" edge="1" parent="1" source="9Mkc4Z1S04Rf9FDKD0FJ-60" target="9Mkc4Z1S04Rf9FDKD0FJ-57">
          <mxGeometry relative="1" as="geometry" />
        </mxCell>
        <mxCell id="9Mkc4Z1S04Rf9FDKD0FJ-60" value="CEP" style="ellipse;whiteSpace=wrap;html=1;align=center;fontFamily=Helvetica;fontSize=11;fontColor=default;labelBackgroundColor=default;" vertex="1" parent="1">
          <mxGeometry x="440" y="275" width="100" height="40" as="geometry" />
        </mxCell>
        <mxCell id="9Mkc4Z1S04Rf9FDKD0FJ-61" value="ESTADO" style="ellipse;whiteSpace=wrap;html=1;align=center;fontFamily=Helvetica;fontSize=11;fontColor=default;labelBackgroundColor=default;" vertex="1" parent="1">
          <mxGeometry x="500" y="315" width="100" height="40" as="geometry" />
        </mxCell>
        <mxCell id="9Mkc4Z1S04Rf9FDKD0FJ-62" value="CIDADE" style="ellipse;whiteSpace=wrap;html=1;align=center;fontFamily=Helvetica;fontSize=11;fontColor=default;labelBackgroundColor=default;" vertex="1" parent="1">
          <mxGeometry x="500" y="365" width="100" height="40" as="geometry" />
        </mxCell>
        <mxCell id="9Mkc4Z1S04Rf9FDKD0FJ-63" style="edgeStyle=none;rounded=0;orthogonalLoop=1;jettySize=auto;html=1;entryX=0.956;entryY=0.321;entryDx=0;entryDy=0;entryPerimeter=0;strokeColor=default;align=center;verticalAlign=middle;fontFamily=Helvetica;fontSize=11;fontColor=default;labelBackgroundColor=default;endArrow=none;endFill=0;" edge="1" parent="1" source="9Mkc4Z1S04Rf9FDKD0FJ-62" target="9Mkc4Z1S04Rf9FDKD0FJ-57">
          <mxGeometry relative="1" as="geometry" />
        </mxCell>
        <mxCell id="9Mkc4Z1S04Rf9FDKD0FJ-64" style="edgeStyle=none;rounded=0;orthogonalLoop=1;jettySize=auto;html=1;entryX=0.928;entryY=0.205;entryDx=0;entryDy=0;entryPerimeter=0;strokeColor=default;align=center;verticalAlign=middle;fontFamily=Helvetica;fontSize=11;fontColor=default;labelBackgroundColor=default;endArrow=none;endFill=0;" edge="1" parent="1" source="9Mkc4Z1S04Rf9FDKD0FJ-61" target="9Mkc4Z1S04Rf9FDKD0FJ-57">
          <mxGeometry relative="1" as="geometry" />
        </mxCell>
        <mxCell id="9Mkc4Z1S04Rf9FDKD0FJ-65" value="" style="triangle;whiteSpace=wrap;html=1;fontFamily=Helvetica;fontSize=11;fontColor=default;labelBackgroundColor=default;rotation=-90;" vertex="1" parent="1">
          <mxGeometry x="1200" y="1110" width="20" height="26.67" as="geometry" />
        </mxCell>
        <mxCell id="9Mkc4Z1S04Rf9FDKD0FJ-66" style="edgeStyle=none;rounded=0;orthogonalLoop=1;jettySize=auto;html=1;entryX=0.044;entryY=0.004;entryDx=0;entryDy=0;strokeColor=default;align=center;verticalAlign=middle;fontFamily=Helvetica;fontSize=11;fontColor=default;labelBackgroundColor=default;endArrow=none;endFill=0;entryPerimeter=0;" edge="1" parent="1" source="9Mkc4Z1S04Rf9FDKD0FJ-68" target="9Mkc4Z1S04Rf9FDKD0FJ-65">
          <mxGeometry relative="1" as="geometry" />
        </mxCell>
        <mxCell id="9Mkc4Z1S04Rf9FDKD0FJ-67" value="&lt;font style=&quot;vertical-align: inherit;&quot;&gt;&lt;font style=&quot;vertical-align: inherit;&quot;&gt;N&lt;/font&gt;&lt;/font&gt;" style="edgeStyle=none;rounded=0;orthogonalLoop=1;jettySize=auto;html=1;entryX=1;entryY=0.5;entryDx=0;entryDy=0;strokeColor=default;align=center;verticalAlign=middle;fontFamily=Helvetica;fontSize=11;fontColor=default;labelBackgroundColor=default;endArrow=none;endFill=0;" edge="1" parent="1" source="9Mkc4Z1S04Rf9FDKD0FJ-68">
          <mxGeometry relative="1" as="geometry">
            <mxPoint x="980" y="1190" as="targetPoint" />
          </mxGeometry>
        </mxCell>
        <mxCell id="9Mkc4Z1S04Rf9FDKD0FJ-68" value="ASSISTENTE" style="rounded=0;whiteSpace=wrap;html=1;" vertex="1" parent="1">
          <mxGeometry x="1050" y="1160" width="120" height="60" as="geometry" />
        </mxCell>
        <mxCell id="9Mkc4Z1S04Rf9FDKD0FJ-69" style="edgeStyle=none;rounded=0;orthogonalLoop=1;jettySize=auto;html=1;entryX=1;entryY=0.5;entryDx=0;entryDy=0;strokeColor=default;align=center;verticalAlign=middle;fontFamily=Helvetica;fontSize=11;fontColor=default;labelBackgroundColor=default;endArrow=none;endFill=0;" edge="1" parent="1" source="9Mkc4Z1S04Rf9FDKD0FJ-71" target="9Mkc4Z1S04Rf9FDKD0FJ-5">
          <mxGeometry relative="1" as="geometry" />
        </mxCell>
        <mxCell id="9Mkc4Z1S04Rf9FDKD0FJ-70" style="edgeStyle=none;rounded=0;orthogonalLoop=1;jettySize=auto;html=1;strokeColor=default;align=center;verticalAlign=middle;fontFamily=Helvetica;fontSize=11;fontColor=default;labelBackgroundColor=default;endArrow=none;endFill=0;entryX=0.055;entryY=1.026;entryDx=0;entryDy=0;entryPerimeter=0;" edge="1" parent="1" source="9Mkc4Z1S04Rf9FDKD0FJ-73" target="9Mkc4Z1S04Rf9FDKD0FJ-65">
          <mxGeometry relative="1" as="geometry">
            <mxPoint x="1225" y="1135" as="targetPoint" />
          </mxGeometry>
        </mxCell>
        <mxCell id="9Mkc4Z1S04Rf9FDKD0FJ-71" value="&lt;font style=&quot;font-size: 10px;&quot;&gt;ITENS DO PEDIDO&lt;/font&gt;" style="ellipse;whiteSpace=wrap;html=1;align=center;fontFamily=Helvetica;fontSize=11;fontColor=default;labelBackgroundColor=default;" vertex="1" parent="1">
          <mxGeometry x="2351" y="885" width="100" height="40" as="geometry" />
        </mxCell>
        <mxCell id="9Mkc4Z1S04Rf9FDKD0FJ-72" value="1" style="edgeStyle=none;rounded=0;orthogonalLoop=1;jettySize=auto;html=1;entryX=0;entryY=0.5;entryDx=0;entryDy=0;strokeColor=default;align=center;verticalAlign=middle;fontFamily=Helvetica;fontSize=11;fontColor=default;labelBackgroundColor=default;endArrow=none;endFill=0;" edge="1" parent="1" source="9Mkc4Z1S04Rf9FDKD0FJ-73" target="9Mkc4Z1S04Rf9FDKD0FJ-142">
          <mxGeometry x="0.0148" y="10" relative="1" as="geometry">
            <mxPoint as="offset" />
          </mxGeometry>
        </mxCell>
        <mxCell id="9Mkc4Z1S04Rf9FDKD0FJ-73" value="DENTISTA" style="rounded=0;whiteSpace=wrap;html=1;" vertex="1" parent="1">
          <mxGeometry x="1237" y="1160" width="120" height="60" as="geometry" />
        </mxCell>
        <mxCell id="9Mkc4Z1S04Rf9FDKD0FJ-74" value="&lt;font style=&quot;font-size: 10px;&quot;&gt;ID_ESTOQUE&lt;/font&gt;" style="ellipse;whiteSpace=wrap;html=1;align=center;fontStyle=4;" vertex="1" parent="1">
          <mxGeometry x="1064" y="270" width="100" height="40" as="geometry" />
        </mxCell>
        <mxCell id="9Mkc4Z1S04Rf9FDKD0FJ-75" style="edgeStyle=none;rounded=0;orthogonalLoop=1;jettySize=auto;html=1;entryX=1;entryY=0.25;entryDx=0;entryDy=0;strokeColor=default;align=center;verticalAlign=middle;fontFamily=Helvetica;fontSize=11;fontColor=default;labelBackgroundColor=default;endArrow=none;endFill=0;exitX=0;exitY=0;exitDx=0;exitDy=0;" edge="1" parent="1" source="9Mkc4Z1S04Rf9FDKD0FJ-77" target="9Mkc4Z1S04Rf9FDKD0FJ-46">
          <mxGeometry relative="1" as="geometry">
            <mxPoint x="1335" y="955" as="sourcePoint" />
          </mxGeometry>
        </mxCell>
        <mxCell id="9Mkc4Z1S04Rf9FDKD0FJ-76" style="edgeStyle=none;rounded=0;orthogonalLoop=1;jettySize=auto;html=1;strokeColor=default;align=center;verticalAlign=middle;fontFamily=Helvetica;fontSize=11;fontColor=default;labelBackgroundColor=default;endArrow=none;endFill=0;entryX=1;entryY=0.5;entryDx=0;entryDy=0;" edge="1" parent="1" source="9Mkc4Z1S04Rf9FDKD0FJ-80" target="9Mkc4Z1S04Rf9FDKD0FJ-82">
          <mxGeometry relative="1" as="geometry">
            <mxPoint x="1190.5" y="160" as="targetPoint" />
          </mxGeometry>
        </mxCell>
        <mxCell id="9Mkc4Z1S04Rf9FDKD0FJ-77" value="&lt;span style=&quot;font-size: 10px;&quot;&gt;CPF&lt;/span&gt;" style="ellipse;whiteSpace=wrap;html=1;align=center;fontStyle=4;" vertex="1" parent="1">
          <mxGeometry x="1335" y="980" width="100" height="40" as="geometry" />
        </mxCell>
        <mxCell id="9Mkc4Z1S04Rf9FDKD0FJ-78" style="edgeStyle=none;rounded=0;orthogonalLoop=1;jettySize=auto;html=1;strokeColor=default;align=center;verticalAlign=middle;fontFamily=Helvetica;fontSize=11;fontColor=default;labelBackgroundColor=default;endArrow=none;endFill=0;entryX=0.457;entryY=0.009;entryDx=0;entryDy=0;entryPerimeter=0;" edge="1" parent="1" source="9Mkc4Z1S04Rf9FDKD0FJ-80" target="9Mkc4Z1S04Rf9FDKD0FJ-11">
          <mxGeometry relative="1" as="geometry">
            <mxPoint x="1190" y="340" as="targetPoint" />
          </mxGeometry>
        </mxCell>
        <mxCell id="9Mkc4Z1S04Rf9FDKD0FJ-79" style="edgeStyle=none;rounded=0;orthogonalLoop=1;jettySize=auto;html=1;entryX=0;entryY=0.5;entryDx=0;entryDy=0;strokeColor=default;align=center;verticalAlign=middle;fontFamily=Helvetica;fontSize=11;fontColor=default;labelBackgroundColor=default;endArrow=none;endFill=0;" edge="1" parent="1" source="9Mkc4Z1S04Rf9FDKD0FJ-81" target="9Mkc4Z1S04Rf9FDKD0FJ-46">
          <mxGeometry relative="1" as="geometry" />
        </mxCell>
        <mxCell id="9Mkc4Z1S04Rf9FDKD0FJ-80" value="TIPO" style="ellipse;whiteSpace=wrap;html=1;align=center;fontFamily=Helvetica;fontSize=11;fontColor=default;labelBackgroundColor=default;" vertex="1" parent="1">
          <mxGeometry x="1140" y="235" width="100" height="40" as="geometry" />
        </mxCell>
        <mxCell id="9Mkc4Z1S04Rf9FDKD0FJ-81" value="&lt;span style=&quot;font-size: 10px;&quot;&gt;EMAIL&lt;/span&gt;" style="ellipse;whiteSpace=wrap;html=1;align=center;fontStyle=4;" vertex="1" parent="1">
          <mxGeometry x="970" y="980" width="100" height="40" as="geometry" />
        </mxCell>
        <mxCell id="9Mkc4Z1S04Rf9FDKD0FJ-82" value="" style="triangle;whiteSpace=wrap;html=1;fontFamily=Helvetica;fontSize=11;fontColor=default;labelBackgroundColor=default;rotation=90;" vertex="1" parent="1">
          <mxGeometry x="1180" y="170" width="20" height="40" as="geometry" />
        </mxCell>
        <mxCell id="9Mkc4Z1S04Rf9FDKD0FJ-83" value="NOME" style="ellipse;whiteSpace=wrap;html=1;align=center;fontFamily=Helvetica;fontSize=11;fontColor=default;labelBackgroundColor=default;" vertex="1" parent="1">
          <mxGeometry x="1015" y="1050" width="100" height="40" as="geometry" />
        </mxCell>
        <mxCell id="9Mkc4Z1S04Rf9FDKD0FJ-84" value="ENTRADA" style="ellipse;whiteSpace=wrap;html=1;align=center;fontFamily=Helvetica;fontSize=11;labelBackgroundColor=default;fillColor=#dae8fc;strokeColor=#6c8ebf;" vertex="1" parent="1">
          <mxGeometry x="1030" y="90" width="100" height="40" as="geometry" />
        </mxCell>
        <mxCell id="9Mkc4Z1S04Rf9FDKD0FJ-85" style="edgeStyle=none;rounded=0;orthogonalLoop=1;jettySize=auto;html=1;strokeColor=default;align=center;verticalAlign=middle;fontFamily=Helvetica;fontSize=11;fontColor=default;labelBackgroundColor=default;endArrow=none;endFill=0;" edge="1" parent="1" source="9Mkc4Z1S04Rf9FDKD0FJ-83" target="9Mkc4Z1S04Rf9FDKD0FJ-46">
          <mxGeometry relative="1" as="geometry" />
        </mxCell>
        <mxCell id="9Mkc4Z1S04Rf9FDKD0FJ-86" style="edgeStyle=none;rounded=0;orthogonalLoop=1;jettySize=auto;html=1;entryX=0;entryY=0.5;entryDx=0;entryDy=0;strokeColor=default;align=center;verticalAlign=middle;fontFamily=Helvetica;fontSize=11;fontColor=default;labelBackgroundColor=default;endArrow=none;endFill=0;" edge="1" parent="1" source="9Mkc4Z1S04Rf9FDKD0FJ-88" target="9Mkc4Z1S04Rf9FDKD0FJ-82">
          <mxGeometry relative="1" as="geometry" />
        </mxCell>
        <mxCell id="9Mkc4Z1S04Rf9FDKD0FJ-87" style="edgeStyle=none;rounded=0;orthogonalLoop=1;jettySize=auto;html=1;strokeColor=default;align=center;verticalAlign=middle;fontFamily=Helvetica;fontSize=11;fontColor=default;labelBackgroundColor=default;endArrow=none;endFill=0;" edge="1" parent="1" source="9Mkc4Z1S04Rf9FDKD0FJ-89" target="9Mkc4Z1S04Rf9FDKD0FJ-47">
          <mxGeometry relative="1" as="geometry" />
        </mxCell>
        <mxCell id="9Mkc4Z1S04Rf9FDKD0FJ-88" value="SAIDA" style="ellipse;whiteSpace=wrap;html=1;align=center;fontFamily=Helvetica;fontSize=11;labelBackgroundColor=default;fillColor=#dae8fc;strokeColor=#6c8ebf;" vertex="1" parent="1">
          <mxGeometry x="1140" y="90" width="100" height="40" as="geometry" />
        </mxCell>
        <mxCell id="9Mkc4Z1S04Rf9FDKD0FJ-89" value="&lt;span style=&quot;font-size: 10px;&quot;&gt;Nº SALA&lt;/span&gt;" style="ellipse;whiteSpace=wrap;html=1;align=center;fontStyle=4;" vertex="1" parent="1">
          <mxGeometry x="680" y="1080" width="100" height="40" as="geometry" />
        </mxCell>
        <mxCell id="9Mkc4Z1S04Rf9FDKD0FJ-90" value="AJUSTE" style="ellipse;whiteSpace=wrap;html=1;align=center;fontFamily=Helvetica;fontSize=11;labelBackgroundColor=default;fillColor=#dae8fc;strokeColor=#6c8ebf;" vertex="1" parent="1">
          <mxGeometry x="1251" y="90" width="100" height="40" as="geometry" />
        </mxCell>
        <mxCell id="9Mkc4Z1S04Rf9FDKD0FJ-91" style="edgeStyle=none;rounded=0;orthogonalLoop=1;jettySize=auto;html=1;entryX=-0.016;entryY=0.973;entryDx=0;entryDy=0;entryPerimeter=0;strokeColor=default;align=center;verticalAlign=middle;fontFamily=Helvetica;fontSize=11;fontColor=default;labelBackgroundColor=default;endArrow=none;endFill=0;" edge="1" parent="1" source="9Mkc4Z1S04Rf9FDKD0FJ-84" target="9Mkc4Z1S04Rf9FDKD0FJ-82">
          <mxGeometry relative="1" as="geometry" />
        </mxCell>
        <mxCell id="9Mkc4Z1S04Rf9FDKD0FJ-92" style="edgeStyle=none;rounded=0;orthogonalLoop=1;jettySize=auto;html=1;entryX=0;entryY=0;entryDx=0;entryDy=0;entryPerimeter=0;strokeColor=default;align=center;verticalAlign=middle;fontFamily=Helvetica;fontSize=11;fontColor=default;labelBackgroundColor=default;endArrow=none;endFill=0;" edge="1" parent="1" source="9Mkc4Z1S04Rf9FDKD0FJ-90" target="9Mkc4Z1S04Rf9FDKD0FJ-82">
          <mxGeometry relative="1" as="geometry" />
        </mxCell>
        <mxCell id="9Mkc4Z1S04Rf9FDKD0FJ-93" value="PRODUTO" style="ellipse;whiteSpace=wrap;html=1;align=center;fontFamily=Helvetica;fontSize=11;fontColor=default;labelBackgroundColor=default;" vertex="1" parent="1">
          <mxGeometry x="1251" y="250" width="100" height="40" as="geometry" />
        </mxCell>
        <mxCell id="9Mkc4Z1S04Rf9FDKD0FJ-94" style="edgeStyle=none;rounded=0;orthogonalLoop=1;jettySize=auto;html=1;entryX=0.75;entryY=1;entryDx=0;entryDy=0;strokeColor=default;align=center;verticalAlign=middle;fontFamily=Helvetica;fontSize=11;fontColor=default;labelBackgroundColor=default;endArrow=none;endFill=0;" edge="1" parent="1" source="9Mkc4Z1S04Rf9FDKD0FJ-95" target="9Mkc4Z1S04Rf9FDKD0FJ-5">
          <mxGeometry relative="1" as="geometry" />
        </mxCell>
        <mxCell id="9Mkc4Z1S04Rf9FDKD0FJ-95" value="QUANTIDADE" style="ellipse;whiteSpace=wrap;html=1;align=center;fontFamily=Helvetica;fontSize=11;fontColor=default;labelBackgroundColor=default;" vertex="1" parent="1">
          <mxGeometry x="2270" y="920" width="100" height="40" as="geometry" />
        </mxCell>
        <mxCell id="9Mkc4Z1S04Rf9FDKD0FJ-96" style="edgeStyle=none;rounded=0;orthogonalLoop=1;jettySize=auto;html=1;entryX=0;entryY=0.25;entryDx=0;entryDy=0;strokeColor=default;align=center;verticalAlign=middle;fontFamily=Helvetica;fontSize=11;fontColor=default;labelBackgroundColor=default;endArrow=none;endFill=0;" edge="1" parent="1" source="9Mkc4Z1S04Rf9FDKD0FJ-97" target="9Mkc4Z1S04Rf9FDKD0FJ-11">
          <mxGeometry relative="1" as="geometry" />
        </mxCell>
        <mxCell id="9Mkc4Z1S04Rf9FDKD0FJ-97" value="DATA E HORA&lt;div&gt;PEDIDO&lt;/div&gt;" style="ellipse;whiteSpace=wrap;html=1;align=center;fontFamily=Helvetica;fontSize=11;fontColor=default;labelBackgroundColor=default;" vertex="1" parent="1">
          <mxGeometry x="1020" y="310" width="100" height="40" as="geometry" />
        </mxCell>
        <mxCell id="9Mkc4Z1S04Rf9FDKD0FJ-98" style="edgeStyle=none;rounded=0;orthogonalLoop=1;jettySize=auto;html=1;entryX=0.25;entryY=1;entryDx=0;entryDy=0;strokeColor=default;align=center;verticalAlign=middle;fontFamily=Helvetica;fontSize=11;fontColor=default;labelBackgroundColor=default;endArrow=none;endFill=0;" edge="1" parent="1" source="9Mkc4Z1S04Rf9FDKD0FJ-99" target="9Mkc4Z1S04Rf9FDKD0FJ-7">
          <mxGeometry relative="1" as="geometry" />
        </mxCell>
        <mxCell id="9Mkc4Z1S04Rf9FDKD0FJ-99" value="&lt;font style=&quot;font-size: 10px;&quot;&gt;ID_CLIENTE&lt;/font&gt;" style="ellipse;whiteSpace=wrap;html=1;align=center;fontStyle=4;" vertex="1" parent="1">
          <mxGeometry x="90" y="1080" width="100" height="40" as="geometry" />
        </mxCell>
        <mxCell id="9Mkc4Z1S04Rf9FDKD0FJ-100" style="edgeStyle=none;rounded=0;orthogonalLoop=1;jettySize=auto;html=1;entryX=0.46;entryY=0.994;entryDx=0;entryDy=0;strokeColor=default;align=center;verticalAlign=middle;fontFamily=Helvetica;fontSize=11;fontColor=default;labelBackgroundColor=default;endArrow=none;endFill=0;entryPerimeter=0;" edge="1" parent="1" source="9Mkc4Z1S04Rf9FDKD0FJ-101" target="9Mkc4Z1S04Rf9FDKD0FJ-7">
          <mxGeometry relative="1" as="geometry" />
        </mxCell>
        <mxCell id="9Mkc4Z1S04Rf9FDKD0FJ-101" value="NOME" style="ellipse;whiteSpace=wrap;html=1;align=center;fontFamily=Helvetica;fontSize=11;fontColor=default;labelBackgroundColor=default;" vertex="1" parent="1">
          <mxGeometry x="200" y="1090" width="100" height="40" as="geometry" />
        </mxCell>
        <mxCell id="9Mkc4Z1S04Rf9FDKD0FJ-102" style="edgeStyle=none;rounded=0;orthogonalLoop=1;jettySize=auto;html=1;strokeColor=default;align=center;verticalAlign=middle;fontFamily=Helvetica;fontSize=11;fontColor=default;labelBackgroundColor=default;endArrow=none;endFill=0;" edge="1" parent="1" source="9Mkc4Z1S04Rf9FDKD0FJ-103" target="9Mkc4Z1S04Rf9FDKD0FJ-7">
          <mxGeometry relative="1" as="geometry" />
        </mxCell>
        <mxCell id="9Mkc4Z1S04Rf9FDKD0FJ-103" value="TELEFONE" style="ellipse;whiteSpace=wrap;html=1;align=center;fontFamily=Helvetica;fontSize=11;fontColor=default;labelBackgroundColor=default;" vertex="1" parent="1">
          <mxGeometry x="310" y="1090" width="100" height="40" as="geometry" />
        </mxCell>
        <mxCell id="9Mkc4Z1S04Rf9FDKD0FJ-104" style="edgeStyle=none;rounded=0;orthogonalLoop=1;jettySize=auto;html=1;entryX=1;entryY=1;entryDx=0;entryDy=0;strokeColor=default;align=center;verticalAlign=middle;fontFamily=Helvetica;fontSize=11;fontColor=default;labelBackgroundColor=default;endArrow=none;endFill=0;" edge="1" parent="1" source="9Mkc4Z1S04Rf9FDKD0FJ-105" target="9Mkc4Z1S04Rf9FDKD0FJ-7">
          <mxGeometry relative="1" as="geometry" />
        </mxCell>
        <mxCell id="9Mkc4Z1S04Rf9FDKD0FJ-105" value="&lt;font style=&quot;font-size: 9px;&quot;&gt;HISTORICO DE COMPRA&lt;/font&gt;" style="ellipse;whiteSpace=wrap;html=1;align=center;fontFamily=Helvetica;fontSize=11;fontColor=default;labelBackgroundColor=default;" vertex="1" parent="1">
          <mxGeometry x="420" y="1070" width="100" height="40" as="geometry" />
        </mxCell>
        <mxCell id="9Mkc4Z1S04Rf9FDKD0FJ-106" style="edgeStyle=none;rounded=0;orthogonalLoop=1;jettySize=auto;html=1;entryX=0.5;entryY=1;entryDx=0;entryDy=0;strokeColor=default;align=center;verticalAlign=middle;fontFamily=Helvetica;fontSize=11;fontColor=default;labelBackgroundColor=default;endArrow=none;endFill=0;" edge="1" parent="1" source="9Mkc4Z1S04Rf9FDKD0FJ-107" target="9Mkc4Z1S04Rf9FDKD0FJ-4">
          <mxGeometry relative="1" as="geometry" />
        </mxCell>
        <mxCell id="9Mkc4Z1S04Rf9FDKD0FJ-107" value="FORNECER" style="shape=rhombus;perimeter=rhombusPerimeter;whiteSpace=wrap;html=1;align=center;fontFamily=Helvetica;fontSize=11;fontColor=default;labelBackgroundColor=default;" vertex="1" parent="1">
          <mxGeometry x="1560" y="560" width="120" height="60" as="geometry" />
        </mxCell>
        <mxCell id="9Mkc4Z1S04Rf9FDKD0FJ-108" value="1" style="shape=link;html=1;rounded=0;strokeColor=default;align=center;verticalAlign=middle;fontFamily=Helvetica;fontSize=11;fontColor=default;labelBackgroundColor=default;endArrow=none;endFill=0;exitX=0.5;exitY=0;exitDx=0;exitDy=0;entryX=0.5;entryY=1;entryDx=0;entryDy=0;" edge="1" parent="1" source="9Mkc4Z1S04Rf9FDKD0FJ-3" target="9Mkc4Z1S04Rf9FDKD0FJ-107">
          <mxGeometry x="1" y="140" relative="1" as="geometry">
            <mxPoint x="1540" y="690" as="sourcePoint" />
            <mxPoint x="1700" y="690" as="targetPoint" />
            <mxPoint x="130" y="-140" as="offset" />
          </mxGeometry>
        </mxCell>
        <mxCell id="9Mkc4Z1S04Rf9FDKD0FJ-109" value="N" style="edgeLabel;html=1;align=center;verticalAlign=middle;resizable=0;points=[];fontFamily=Helvetica;fontSize=11;fontColor=default;labelBackgroundColor=default;" vertex="1" connectable="0" parent="9Mkc4Z1S04Rf9FDKD0FJ-108">
          <mxGeometry x="0.0667" y="-1" relative="1" as="geometry">
            <mxPoint x="-11" as="offset" />
          </mxGeometry>
        </mxCell>
        <mxCell id="9Mkc4Z1S04Rf9FDKD0FJ-110" style="edgeStyle=none;rounded=0;orthogonalLoop=1;jettySize=auto;html=1;entryX=1;entryY=0.75;entryDx=0;entryDy=0;strokeColor=default;align=center;verticalAlign=middle;fontFamily=Helvetica;fontSize=11;fontColor=default;labelBackgroundColor=default;endArrow=none;endFill=0;" edge="1" parent="1" source="9Mkc4Z1S04Rf9FDKD0FJ-111" target="9Mkc4Z1S04Rf9FDKD0FJ-3">
          <mxGeometry relative="1" as="geometry" />
        </mxCell>
        <mxCell id="9Mkc4Z1S04Rf9FDKD0FJ-111" value="TIPO" style="ellipse;whiteSpace=wrap;html=1;align=center;fontFamily=Helvetica;fontSize=11;fontColor=default;labelBackgroundColor=default;direction=east;" vertex="1" parent="1">
          <mxGeometry x="1734" y="905" width="100" height="40" as="geometry" />
        </mxCell>
        <mxCell id="9Mkc4Z1S04Rf9FDKD0FJ-112" style="edgeStyle=none;rounded=0;orthogonalLoop=1;jettySize=auto;html=1;entryX=1;entryY=0.5;entryDx=0;entryDy=0;strokeColor=default;align=center;verticalAlign=middle;fontFamily=Helvetica;fontSize=11;fontColor=default;labelBackgroundColor=default;endArrow=none;endFill=0;" edge="1" parent="1" source="9Mkc4Z1S04Rf9FDKD0FJ-113" target="9Mkc4Z1S04Rf9FDKD0FJ-3">
          <mxGeometry relative="1" as="geometry" />
        </mxCell>
        <mxCell id="9Mkc4Z1S04Rf9FDKD0FJ-113" value="RESINA" style="ellipse;whiteSpace=wrap;html=1;align=center;fontFamily=Helvetica;fontSize=11;fontColor=default;labelBackgroundColor=default;direction=east;" vertex="1" parent="1">
          <mxGeometry x="1750" y="850" width="100" height="40" as="geometry" />
        </mxCell>
        <mxCell id="9Mkc4Z1S04Rf9FDKD0FJ-114" style="edgeStyle=none;rounded=0;orthogonalLoop=1;jettySize=auto;html=1;strokeColor=default;align=center;verticalAlign=middle;fontFamily=Helvetica;fontSize=11;fontColor=default;labelBackgroundColor=default;endArrow=none;endFill=0;" edge="1" parent="1" source="9Mkc4Z1S04Rf9FDKD0FJ-115" target="9Mkc4Z1S04Rf9FDKD0FJ-3">
          <mxGeometry relative="1" as="geometry" />
        </mxCell>
        <mxCell id="9Mkc4Z1S04Rf9FDKD0FJ-115" value="FIO" style="ellipse;whiteSpace=wrap;html=1;align=center;fontFamily=Helvetica;fontSize=11;fontColor=default;labelBackgroundColor=default;direction=east;" vertex="1" parent="1">
          <mxGeometry x="1410" y="740" width="100" height="40" as="geometry" />
        </mxCell>
        <mxCell id="9Mkc4Z1S04Rf9FDKD0FJ-116" style="edgeStyle=none;rounded=0;orthogonalLoop=1;jettySize=auto;html=1;strokeColor=default;align=center;verticalAlign=middle;fontFamily=Helvetica;fontSize=11;fontColor=default;labelBackgroundColor=default;endArrow=none;endFill=0;entryX=0.5;entryY=1;entryDx=0;entryDy=0;" edge="1" parent="1" source="9Mkc4Z1S04Rf9FDKD0FJ-117" target="9Mkc4Z1S04Rf9FDKD0FJ-5">
          <mxGeometry relative="1" as="geometry">
            <mxPoint x="2220" y="885" as="targetPoint" />
          </mxGeometry>
        </mxCell>
        <mxCell id="9Mkc4Z1S04Rf9FDKD0FJ-117" value="FORNECEDOR" style="ellipse;whiteSpace=wrap;html=1;align=center;fontFamily=Helvetica;fontSize=11;fontColor=default;labelBackgroundColor=default;direction=east;" vertex="1" parent="1">
          <mxGeometry x="2160" y="920" width="100" height="40" as="geometry" />
        </mxCell>
        <mxCell id="9Mkc4Z1S04Rf9FDKD0FJ-118" style="edgeStyle=none;rounded=0;orthogonalLoop=1;jettySize=auto;html=1;entryX=0;entryY=0.5;entryDx=0;entryDy=0;strokeColor=default;align=center;verticalAlign=middle;fontFamily=Helvetica;fontSize=11;fontColor=default;labelBackgroundColor=default;endArrow=none;endFill=0;" edge="1" parent="1" source="9Mkc4Z1S04Rf9FDKD0FJ-119" target="9Mkc4Z1S04Rf9FDKD0FJ-5">
          <mxGeometry relative="1" as="geometry" />
        </mxCell>
        <mxCell id="9Mkc4Z1S04Rf9FDKD0FJ-119" value="DATA DO PEDIDO" style="ellipse;whiteSpace=wrap;html=1;align=center;fontFamily=Helvetica;fontSize=11;fontColor=default;labelBackgroundColor=default;direction=east;" vertex="1" parent="1">
          <mxGeometry x="2090" y="885" width="100" height="40" as="geometry" />
        </mxCell>
        <mxCell id="9Mkc4Z1S04Rf9FDKD0FJ-120" style="edgeStyle=none;rounded=0;orthogonalLoop=1;jettySize=auto;html=1;entryX=1;entryY=0.5;entryDx=0;entryDy=0;strokeColor=default;align=center;verticalAlign=middle;fontFamily=Helvetica;fontSize=11;fontColor=default;labelBackgroundColor=default;endArrow=none;endFill=0;exitX=0;exitY=0.5;exitDx=0;exitDy=0;" edge="1" parent="1" source="9Mkc4Z1S04Rf9FDKD0FJ-121" target="9Mkc4Z1S04Rf9FDKD0FJ-5">
          <mxGeometry relative="1" as="geometry" />
        </mxCell>
        <mxCell id="9Mkc4Z1S04Rf9FDKD0FJ-121" value="&lt;font style=&quot;font-size: 10px;&quot;&gt;STATUS&lt;/font&gt;" style="ellipse;whiteSpace=wrap;html=1;align=center;fontFamily=Helvetica;fontSize=11;fontColor=default;labelBackgroundColor=default;" vertex="1" parent="1">
          <mxGeometry x="2350" y="800" width="100" height="40" as="geometry" />
        </mxCell>
        <mxCell id="9Mkc4Z1S04Rf9FDKD0FJ-122" style="edgeStyle=none;rounded=0;orthogonalLoop=1;jettySize=auto;html=1;strokeColor=default;align=center;verticalAlign=middle;fontFamily=Helvetica;fontSize=11;fontColor=default;labelBackgroundColor=default;endArrow=none;endFill=0;entryX=1;entryY=0.5;entryDx=0;entryDy=0;exitX=1;exitY=0.5;exitDx=0;exitDy=0;" edge="1" parent="1" source="9Mkc4Z1S04Rf9FDKD0FJ-121" target="9Mkc4Z1S04Rf9FDKD0FJ-123">
          <mxGeometry relative="1" as="geometry">
            <mxPoint x="2470.5" y="780" as="targetPoint" />
            <mxPoint x="2470" y="855" as="sourcePoint" />
          </mxGeometry>
        </mxCell>
        <mxCell id="9Mkc4Z1S04Rf9FDKD0FJ-123" value="" style="triangle;whiteSpace=wrap;html=1;fontFamily=Helvetica;fontSize=11;fontColor=default;labelBackgroundColor=default;rotation=-180;" vertex="1" parent="1">
          <mxGeometry x="2470" y="800" width="20" height="40" as="geometry" />
        </mxCell>
        <mxCell id="9Mkc4Z1S04Rf9FDKD0FJ-124" value="PENDENTE&amp;nbsp;" style="ellipse;whiteSpace=wrap;html=1;align=center;fontFamily=Helvetica;fontSize=11;labelBackgroundColor=default;fillColor=#dae8fc;strokeColor=#6c8ebf;" vertex="1" parent="1">
          <mxGeometry x="2540" y="740" width="100" height="40" as="geometry" />
        </mxCell>
        <mxCell id="9Mkc4Z1S04Rf9FDKD0FJ-125" style="edgeStyle=none;rounded=0;orthogonalLoop=1;jettySize=auto;html=1;entryX=0;entryY=0.5;entryDx=0;entryDy=0;strokeColor=default;align=center;verticalAlign=middle;fontFamily=Helvetica;fontSize=11;fontColor=default;labelBackgroundColor=default;endArrow=none;endFill=0;" edge="1" parent="1" source="9Mkc4Z1S04Rf9FDKD0FJ-126" target="9Mkc4Z1S04Rf9FDKD0FJ-123">
          <mxGeometry relative="1" as="geometry" />
        </mxCell>
        <mxCell id="9Mkc4Z1S04Rf9FDKD0FJ-126" value="ENTREGUE" style="ellipse;whiteSpace=wrap;html=1;align=center;fontFamily=Helvetica;fontSize=11;labelBackgroundColor=default;fillColor=#dae8fc;strokeColor=#6c8ebf;" vertex="1" parent="1">
          <mxGeometry x="2540" y="800" width="100" height="40" as="geometry" />
        </mxCell>
        <mxCell id="9Mkc4Z1S04Rf9FDKD0FJ-127" value="CANCELADO" style="ellipse;whiteSpace=wrap;html=1;align=center;fontFamily=Helvetica;fontSize=11;labelBackgroundColor=default;fillColor=#dae8fc;strokeColor=#6c8ebf;" vertex="1" parent="1">
          <mxGeometry x="2540" y="865" width="100" height="40" as="geometry" />
        </mxCell>
        <mxCell id="9Mkc4Z1S04Rf9FDKD0FJ-128" style="edgeStyle=none;rounded=0;orthogonalLoop=1;jettySize=auto;html=1;entryX=-0.016;entryY=0.973;entryDx=0;entryDy=0;entryPerimeter=0;strokeColor=default;align=center;verticalAlign=middle;fontFamily=Helvetica;fontSize=11;fontColor=default;labelBackgroundColor=default;endArrow=none;endFill=0;" edge="1" parent="1" source="9Mkc4Z1S04Rf9FDKD0FJ-124" target="9Mkc4Z1S04Rf9FDKD0FJ-123">
          <mxGeometry relative="1" as="geometry" />
        </mxCell>
        <mxCell id="9Mkc4Z1S04Rf9FDKD0FJ-129" style="edgeStyle=none;rounded=0;orthogonalLoop=1;jettySize=auto;html=1;entryX=0;entryY=0;entryDx=0;entryDy=0;entryPerimeter=0;strokeColor=default;align=center;verticalAlign=middle;fontFamily=Helvetica;fontSize=11;fontColor=default;labelBackgroundColor=default;endArrow=none;endFill=0;" edge="1" parent="1" source="9Mkc4Z1S04Rf9FDKD0FJ-127" target="9Mkc4Z1S04Rf9FDKD0FJ-123">
          <mxGeometry relative="1" as="geometry" />
        </mxCell>
        <mxCell id="9Mkc4Z1S04Rf9FDKD0FJ-130" value="1" style="edgeStyle=none;rounded=0;orthogonalLoop=1;jettySize=auto;html=1;entryX=1;entryY=0.75;entryDx=0;entryDy=0;strokeColor=default;align=center;verticalAlign=middle;fontFamily=Helvetica;fontSize=11;fontColor=default;labelBackgroundColor=default;endArrow=none;endFill=0;" edge="1" parent="1" source="9Mkc4Z1S04Rf9FDKD0FJ-131" target="9Mkc4Z1S04Rf9FDKD0FJ-4">
          <mxGeometry x="-0.0031" y="11" relative="1" as="geometry">
            <mxPoint as="offset" />
          </mxGeometry>
        </mxCell>
        <mxCell id="9Mkc4Z1S04Rf9FDKD0FJ-131" value="FAZER" style="shape=rhombus;perimeter=rhombusPerimeter;whiteSpace=wrap;html=1;align=center;fontFamily=Helvetica;fontSize=11;fontColor=default;labelBackgroundColor=default;" vertex="1" parent="1">
          <mxGeometry x="1880" y="560" width="120" height="60" as="geometry" />
        </mxCell>
        <mxCell id="9Mkc4Z1S04Rf9FDKD0FJ-132" value="N" style="edgeStyle=none;rounded=0;orthogonalLoop=1;jettySize=auto;html=1;entryX=1;entryY=1;entryDx=0;entryDy=0;strokeColor=default;align=center;verticalAlign=middle;fontFamily=Helvetica;fontSize=11;fontColor=default;labelBackgroundColor=default;endArrow=none;endFill=0;" edge="1" parent="1" source="9Mkc4Z1S04Rf9FDKD0FJ-5" target="9Mkc4Z1S04Rf9FDKD0FJ-131">
          <mxGeometry x="-0.0608" y="11" relative="1" as="geometry">
            <mxPoint x="1877.52" y="637.1399999999999" as="targetPoint" />
            <mxPoint as="offset" />
          </mxGeometry>
        </mxCell>
        <mxCell id="9Mkc4Z1S04Rf9FDKD0FJ-133" value="N" style="edgeStyle=none;rounded=0;orthogonalLoop=1;jettySize=auto;html=1;entryX=0;entryY=0.5;entryDx=0;entryDy=0;strokeColor=default;align=center;verticalAlign=middle;fontFamily=Helvetica;fontSize=11;fontColor=default;labelBackgroundColor=default;endArrow=none;endFill=0;" edge="1" parent="1" source="9Mkc4Z1S04Rf9FDKD0FJ-134" target="9Mkc4Z1S04Rf9FDKD0FJ-5">
          <mxGeometry x="-0.0811" y="10" relative="1" as="geometry">
            <mxPoint as="offset" />
          </mxGeometry>
        </mxCell>
        <mxCell id="9Mkc4Z1S04Rf9FDKD0FJ-134" value="CONTER" style="shape=rhombus;perimeter=rhombusPerimeter;whiteSpace=wrap;html=1;align=center;fontFamily=Helvetica;fontSize=11;fontColor=default;labelBackgroundColor=default;" vertex="1" parent="1">
          <mxGeometry x="1895" y="790" width="120" height="60" as="geometry" />
        </mxCell>
        <mxCell id="9Mkc4Z1S04Rf9FDKD0FJ-135" value="COTEM" style="shape=rhombus;perimeter=rhombusPerimeter;whiteSpace=wrap;html=1;align=center;fontFamily=Helvetica;fontSize=11;fontColor=default;labelBackgroundColor=default;" vertex="1" parent="1">
          <mxGeometry x="1340" y="570" width="120" height="60" as="geometry" />
        </mxCell>
        <mxCell id="9Mkc4Z1S04Rf9FDKD0FJ-136" style="edgeStyle=none;rounded=0;orthogonalLoop=1;jettySize=auto;html=1;entryX=0.5;entryY=1;entryDx=0;entryDy=0;strokeColor=default;align=center;verticalAlign=middle;fontFamily=Helvetica;fontSize=11;fontColor=default;labelBackgroundColor=default;endArrow=none;endFill=0;" edge="1" parent="1" source="9Mkc4Z1S04Rf9FDKD0FJ-138" target="9Mkc4Z1S04Rf9FDKD0FJ-11">
          <mxGeometry relative="1" as="geometry" />
        </mxCell>
        <mxCell id="9Mkc4Z1S04Rf9FDKD0FJ-137" value="N" style="edgeLabel;html=1;align=center;verticalAlign=middle;resizable=0;points=[];fontFamily=Helvetica;fontSize=11;fontColor=default;labelBackgroundColor=default;" vertex="1" connectable="0" parent="9Mkc4Z1S04Rf9FDKD0FJ-136">
          <mxGeometry x="0.0306" y="1" relative="1" as="geometry">
            <mxPoint x="1" y="4" as="offset" />
          </mxGeometry>
        </mxCell>
        <mxCell id="9Mkc4Z1S04Rf9FDKD0FJ-138" value="GERENCIAR" style="shape=rhombus;perimeter=rhombusPerimeter;whiteSpace=wrap;html=1;align=center;fontFamily=Helvetica;fontSize=11;fontColor=default;labelBackgroundColor=default;" vertex="1" parent="1">
          <mxGeometry x="1150" y="700" width="120" height="60" as="geometry" />
        </mxCell>
        <mxCell id="9Mkc4Z1S04Rf9FDKD0FJ-139" value="1" style="edgeStyle=none;rounded=0;orthogonalLoop=1;jettySize=auto;html=1;entryX=0.5;entryY=1;entryDx=0;entryDy=0;strokeColor=default;align=center;verticalAlign=middle;fontFamily=Helvetica;fontSize=11;fontColor=default;labelBackgroundColor=default;endArrow=none;endFill=0;" edge="1" parent="1" source="9Mkc4Z1S04Rf9FDKD0FJ-140" target="9Mkc4Z1S04Rf9FDKD0FJ-48">
          <mxGeometry x="-0.0556" y="10" relative="1" as="geometry">
            <mxPoint as="offset" />
          </mxGeometry>
        </mxCell>
        <mxCell id="9Mkc4Z1S04Rf9FDKD0FJ-140" value="ATENDER" style="shape=rhombus;perimeter=rhombusPerimeter;whiteSpace=wrap;html=1;align=center;fontFamily=Helvetica;fontSize=11;fontColor=default;labelBackgroundColor=default;" vertex="1" parent="1">
          <mxGeometry x="210" y="745" width="120" height="60" as="geometry" />
        </mxCell>
        <mxCell id="9Mkc4Z1S04Rf9FDKD0FJ-141" value="1" style="edgeStyle=none;rounded=0;orthogonalLoop=1;jettySize=auto;html=1;entryX=0.5;entryY=1;entryDx=0;entryDy=0;strokeColor=default;align=center;verticalAlign=middle;fontFamily=Helvetica;fontSize=11;fontColor=default;labelBackgroundColor=default;endArrow=none;endFill=0;" edge="1" parent="1" source="9Mkc4Z1S04Rf9FDKD0FJ-142" target="9Mkc4Z1S04Rf9FDKD0FJ-3">
          <mxGeometry x="-0.0323" y="10" relative="1" as="geometry">
            <mxPoint as="offset" />
          </mxGeometry>
        </mxCell>
        <mxCell id="9Mkc4Z1S04Rf9FDKD0FJ-142" value="PRECISAR" style="shape=rhombus;perimeter=rhombusPerimeter;whiteSpace=wrap;html=1;align=center;fontFamily=Helvetica;fontSize=11;fontColor=default;labelBackgroundColor=default;" vertex="1" parent="1">
          <mxGeometry x="1560" y="1160" width="120" height="60" as="geometry" />
        </mxCell>
        <mxCell id="9Mkc4Z1S04Rf9FDKD0FJ-143" value="ciclo de gerenciamento" style="shape=umlFrame;whiteSpace=wrap;html=1;pointerEvents=0;width=110;height=70;" vertex="1" parent="1">
          <mxGeometry x="620" y="40" width="2070" height="1210" as="geometry" />
        </mxCell>
        <mxCell id="9Mkc4Z1S04Rf9FDKD0FJ-144" value="1" style="edgeStyle=none;rounded=0;orthogonalLoop=1;jettySize=auto;html=1;entryX=0;entryY=0.412;entryDx=0;entryDy=0;entryPerimeter=0;strokeColor=default;align=center;verticalAlign=middle;fontFamily=Helvetica;fontSize=11;fontColor=default;labelBackgroundColor=default;endArrow=none;endFill=0;" edge="1" parent="1" source="9Mkc4Z1S04Rf9FDKD0FJ-146" target="9Mkc4Z1S04Rf9FDKD0FJ-143">
          <mxGeometry x="0.0024" y="9" relative="1" as="geometry">
            <mxPoint as="offset" />
          </mxGeometry>
        </mxCell>
        <mxCell id="9Mkc4Z1S04Rf9FDKD0FJ-145" value="1" style="edgeStyle=none;rounded=0;orthogonalLoop=1;jettySize=auto;html=1;entryX=0;entryY=0.5;entryDx=0;entryDy=0;strokeColor=default;align=center;verticalAlign=middle;fontFamily=Helvetica;fontSize=11;fontColor=default;labelBackgroundColor=default;endArrow=none;endFill=0;" edge="1" parent="1" source="9Mkc4Z1S04Rf9FDKD0FJ-48" target="9Mkc4Z1S04Rf9FDKD0FJ-146">
          <mxGeometry x="0.0476" y="10" relative="1" as="geometry">
            <mxPoint x="330" y="535" as="sourcePoint" />
            <mxPoint x="920" y="539" as="targetPoint" />
            <mxPoint as="offset" />
          </mxGeometry>
        </mxCell>
        <mxCell id="9Mkc4Z1S04Rf9FDKD0FJ-146" value="SUPERVISIONA" style="shape=rhombus;perimeter=rhombusPerimeter;whiteSpace=wrap;html=1;align=center;fontFamily=Helvetica;fontSize=11;fontColor=default;labelBackgroundColor=default;" vertex="1" parent="1">
          <mxGeometry x="420" y="510" width="120" height="60" as="geometry" />
        </mxCell>
        <mxCell id="9Mkc4Z1S04Rf9FDKD0FJ-147" value="&lt;font style=&quot;vertical-align: inherit;&quot;&gt;&lt;font style=&quot;vertical-align: inherit;&quot;&gt;N&lt;/font&gt;&lt;/font&gt;" style="edgeStyle=none;rounded=0;orthogonalLoop=1;jettySize=auto;html=1;entryX=1;entryY=0.5;entryDx=0;entryDy=0;strokeColor=default;align=center;verticalAlign=middle;fontFamily=Helvetica;fontSize=11;fontColor=default;labelBackgroundColor=default;endArrow=none;endFill=0;" edge="1" parent="1" target="9Mkc4Z1S04Rf9FDKD0FJ-47">
          <mxGeometry x="0.1429" y="-10" relative="1" as="geometry">
            <mxPoint x="860" y="1190" as="sourcePoint" />
            <mxPoint as="offset" />
          </mxGeometry>
        </mxCell>
        <mxCell id="9Mkc4Z1S04Rf9FDKD0FJ-148" value="N" style="edgeStyle=orthogonalEdgeStyle;rounded=0;orthogonalLoop=1;jettySize=auto;html=1;strokeColor=default;align=center;verticalAlign=middle;fontFamily=Helvetica;fontSize=11;fontColor=default;labelBackgroundColor=default;endArrow=none;endFill=0;entryX=0;entryY=0.5;entryDx=0;entryDy=0;" edge="1" parent="1" target="9Mkc4Z1S04Rf9FDKD0FJ-3">
          <mxGeometry relative="1" as="geometry">
            <mxPoint x="909.48" y="1179.9799999999998" as="sourcePoint" />
            <mxPoint x="1550" y="820" as="targetPoint" />
            <Array as="points">
              <mxPoint x="909" y="840" />
              <mxPoint x="1560" y="840" />
            </Array>
          </mxGeometry>
        </mxCell>
        <mxCell id="9Mkc4Z1S04Rf9FDKD0FJ-149" value="&lt;font style=&quot;vertical-align: inherit;&quot;&gt;&lt;/font&gt;&lt;font style=&quot;vertical-align: inherit;&quot;&gt;&lt;font style=&quot;vertical-align: inherit;&quot;&gt;enviar&lt;/font&gt;&lt;/font&gt;" style="shape=associativeEntity;whiteSpace=wrap;html=1;align=center;fontFamily=Helvetica;fontSize=11;fontColor=default;labelBackgroundColor=default;" vertex="1" parent="1">
          <mxGeometry x="840" y="1160" width="140" height="60" as="geometry" />
        </mxCell>
        <mxCell id="9Mkc4Z1S04Rf9FDKD0FJ-150" value="" style="rounded=1;orthogonalLoop=1;jettySize=auto;html=1;endArrow=none;endFill=0;" edge="1" parent="1" source="9Mkc4Z1S04Rf9FDKD0FJ-159" target="9Mkc4Z1S04Rf9FDKD0FJ-160">
          <mxGeometry relative="1" as="geometry" />
        </mxCell>
        <mxCell id="9Mkc4Z1S04Rf9FDKD0FJ-151" style="rounded=1;orthogonalLoop=1;jettySize=auto;html=1;entryX=0;entryY=0.5;entryDx=0;entryDy=0;exitX=0.5;exitY=1;exitDx=0;exitDy=0;endArrow=none;endFill=0;" edge="1" parent="1" source="9Mkc4Z1S04Rf9FDKD0FJ-159" target="9Mkc4Z1S04Rf9FDKD0FJ-163">
          <mxGeometry relative="1" as="geometry" />
        </mxCell>
        <mxCell id="9Mkc4Z1S04Rf9FDKD0FJ-152" style="rounded=1;orthogonalLoop=1;jettySize=auto;html=1;endArrow=none;endFill=0;" edge="1" parent="1" source="9Mkc4Z1S04Rf9FDKD0FJ-159" target="9Mkc4Z1S04Rf9FDKD0FJ-164">
          <mxGeometry relative="1" as="geometry" />
        </mxCell>
        <mxCell id="9Mkc4Z1S04Rf9FDKD0FJ-153" style="rounded=1;orthogonalLoop=1;jettySize=auto;html=1;entryX=1;entryY=0.5;entryDx=0;entryDy=0;endArrow=none;endFill=0;" edge="1" parent="1" source="9Mkc4Z1S04Rf9FDKD0FJ-159" target="9Mkc4Z1S04Rf9FDKD0FJ-165">
          <mxGeometry relative="1" as="geometry" />
        </mxCell>
        <mxCell id="9Mkc4Z1S04Rf9FDKD0FJ-154" style="rounded=1;orthogonalLoop=1;jettySize=auto;html=1;entryX=1;entryY=0.5;entryDx=0;entryDy=0;endArrow=none;endFill=0;" edge="1" parent="1" source="9Mkc4Z1S04Rf9FDKD0FJ-159" target="9Mkc4Z1S04Rf9FDKD0FJ-166">
          <mxGeometry relative="1" as="geometry" />
        </mxCell>
        <mxCell id="9Mkc4Z1S04Rf9FDKD0FJ-155" style="rounded=1;orthogonalLoop=1;jettySize=auto;html=1;entryX=1;entryY=0.5;entryDx=0;entryDy=0;endArrow=none;endFill=0;" edge="1" parent="1" source="9Mkc4Z1S04Rf9FDKD0FJ-159" target="9Mkc4Z1S04Rf9FDKD0FJ-167">
          <mxGeometry relative="1" as="geometry" />
        </mxCell>
        <mxCell id="9Mkc4Z1S04Rf9FDKD0FJ-156" style="rounded=1;orthogonalLoop=1;jettySize=auto;html=1;entryX=0;entryY=0.5;entryDx=0;entryDy=0;endArrow=none;endFill=0;" edge="1" parent="1" source="9Mkc4Z1S04Rf9FDKD0FJ-159" target="9Mkc4Z1S04Rf9FDKD0FJ-169">
          <mxGeometry relative="1" as="geometry" />
        </mxCell>
        <mxCell id="9Mkc4Z1S04Rf9FDKD0FJ-157" style="rounded=1;orthogonalLoop=1;jettySize=auto;html=1;entryX=0.5;entryY=1;entryDx=0;entryDy=0;endArrow=none;endFill=0;" edge="1" parent="1" source="9Mkc4Z1S04Rf9FDKD0FJ-159" target="9Mkc4Z1S04Rf9FDKD0FJ-168">
          <mxGeometry relative="1" as="geometry" />
        </mxCell>
        <mxCell id="9Mkc4Z1S04Rf9FDKD0FJ-158" style="rounded=1;orthogonalLoop=1;jettySize=auto;html=1;entryX=0.5;entryY=1;entryDx=0;entryDy=0;endArrow=none;endFill=0;" edge="1" parent="1" source="9Mkc4Z1S04Rf9FDKD0FJ-159" target="9Mkc4Z1S04Rf9FDKD0FJ-170">
          <mxGeometry relative="1" as="geometry" />
        </mxCell>
        <mxCell id="9Mkc4Z1S04Rf9FDKD0FJ-159" value="Funcionário" style="whiteSpace=wrap;html=1;align=center;" vertex="1" parent="1">
          <mxGeometry x="620" y="1640" width="100" height="40" as="geometry" />
        </mxCell>
        <mxCell id="9Mkc4Z1S04Rf9FDKD0FJ-160" value="Nome" style="ellipse;whiteSpace=wrap;html=1;align=center;" vertex="1" parent="1">
          <mxGeometry x="810" y="1460" width="100" height="40" as="geometry" />
        </mxCell>
        <mxCell id="9Mkc4Z1S04Rf9FDKD0FJ-161" value="Endereço" style="ellipse;whiteSpace=wrap;html=1;align=center;" vertex="1" parent="1">
          <mxGeometry x="680" y="1770" width="100" height="40" as="geometry" />
        </mxCell>
        <mxCell id="9Mkc4Z1S04Rf9FDKD0FJ-162" style="rounded=1;orthogonalLoop=1;jettySize=auto;html=1;endArrow=none;endFill=0;" edge="1" parent="1" source="9Mkc4Z1S04Rf9FDKD0FJ-159" target="9Mkc4Z1S04Rf9FDKD0FJ-161">
          <mxGeometry relative="1" as="geometry" />
        </mxCell>
        <mxCell id="9Mkc4Z1S04Rf9FDKD0FJ-163" value="Telefone" style="ellipse;whiteSpace=wrap;html=1;align=center;" vertex="1" parent="1">
          <mxGeometry x="810" y="1530" width="100" height="40" as="geometry" />
        </mxCell>
        <mxCell id="9Mkc4Z1S04Rf9FDKD0FJ-164" value="Salário" style="ellipse;whiteSpace=wrap;html=1;align=center;" vertex="1" parent="1">
          <mxGeometry x="540" y="1770" width="100" height="40" as="geometry" />
        </mxCell>
        <mxCell id="9Mkc4Z1S04Rf9FDKD0FJ-165" value="Horário" style="ellipse;whiteSpace=wrap;html=1;align=center;" vertex="1" parent="1">
          <mxGeometry x="410" y="1740" width="100" height="40" as="geometry" />
        </mxCell>
        <mxCell id="9Mkc4Z1S04Rf9FDKD0FJ-166" value="Filiação" style="ellipse;whiteSpace=wrap;html=1;align=center;" vertex="1" parent="1">
          <mxGeometry x="390" y="1670" width="100" height="40" as="geometry" />
        </mxCell>
        <mxCell id="9Mkc4Z1S04Rf9FDKD0FJ-167" value="Idade" style="ellipse;whiteSpace=wrap;html=1;align=center;" vertex="1" parent="1">
          <mxGeometry x="390" y="1590" width="100" height="40" as="geometry" />
        </mxCell>
        <mxCell id="9Mkc4Z1S04Rf9FDKD0FJ-168" value="CPF" style="ellipse;whiteSpace=wrap;html=1;align=center;" vertex="1" parent="1">
          <mxGeometry x="540" y="1530" width="100" height="40" as="geometry" />
        </mxCell>
        <mxCell id="9Mkc4Z1S04Rf9FDKD0FJ-169" value="Identidade" style="ellipse;whiteSpace=wrap;html=1;align=center;" vertex="1" parent="1">
          <mxGeometry x="810" y="1380" width="100" height="40" as="geometry" />
        </mxCell>
        <mxCell id="9Mkc4Z1S04Rf9FDKD0FJ-170" value="Nacionalidade" style="ellipse;whiteSpace=wrap;html=1;align=center;" vertex="1" parent="1">
          <mxGeometry x="680" y="1530" width="100" height="40" as="geometry" />
        </mxCell>
        <mxCell id="9Mkc4Z1S04Rf9FDKD0FJ-171" value="" style="rounded=1;orthogonalLoop=1;jettySize=auto;html=1;endArrow=none;endFill=0;" edge="1" parent="1" source="9Mkc4Z1S04Rf9FDKD0FJ-173" target="9Mkc4Z1S04Rf9FDKD0FJ-174">
          <mxGeometry relative="1" as="geometry" />
        </mxCell>
        <mxCell id="9Mkc4Z1S04Rf9FDKD0FJ-172" style="rounded=1;orthogonalLoop=1;jettySize=auto;html=1;entryX=0;entryY=0.5;entryDx=0;entryDy=0;endArrow=none;endFill=0;" edge="1" parent="1" source="9Mkc4Z1S04Rf9FDKD0FJ-173" target="9Mkc4Z1S04Rf9FDKD0FJ-177">
          <mxGeometry relative="1" as="geometry" />
        </mxCell>
        <mxCell id="9Mkc4Z1S04Rf9FDKD0FJ-173" value="Departamento" style="whiteSpace=wrap;html=1;align=center;" vertex="1" parent="1">
          <mxGeometry x="1040" y="1770" width="100" height="40" as="geometry" />
        </mxCell>
        <mxCell id="9Mkc4Z1S04Rf9FDKD0FJ-174" value="Nome" style="ellipse;whiteSpace=wrap;html=1;align=center;" vertex="1" parent="1">
          <mxGeometry x="1260" y="1770" width="100" height="40" as="geometry" />
        </mxCell>
        <mxCell id="9Mkc4Z1S04Rf9FDKD0FJ-175" value="" style="rounded=1;orthogonalLoop=1;jettySize=auto;html=1;endArrow=none;endFill=0;" edge="1" parent="1" source="9Mkc4Z1S04Rf9FDKD0FJ-176" target="9Mkc4Z1S04Rf9FDKD0FJ-173">
          <mxGeometry relative="1" as="geometry" />
        </mxCell>
        <mxCell id="9Mkc4Z1S04Rf9FDKD0FJ-176" value="Número de funcionarios" style="ellipse;whiteSpace=wrap;html=1;align=center;" vertex="1" parent="1">
          <mxGeometry x="1250" y="1850" width="100" height="40" as="geometry" />
        </mxCell>
        <mxCell id="9Mkc4Z1S04Rf9FDKD0FJ-177" value="Sigla" style="ellipse;whiteSpace=wrap;html=1;align=center;" vertex="1" parent="1">
          <mxGeometry x="1250" y="1690" width="100" height="40" as="geometry" />
        </mxCell>
        <mxCell id="9Mkc4Z1S04Rf9FDKD0FJ-178" value="" style="rounded=1;orthogonalLoop=1;jettySize=auto;html=1;endArrow=none;endFill=0;" edge="1" parent="1" source="9Mkc4Z1S04Rf9FDKD0FJ-180" target="9Mkc4Z1S04Rf9FDKD0FJ-181">
          <mxGeometry relative="1" as="geometry" />
        </mxCell>
        <mxCell id="9Mkc4Z1S04Rf9FDKD0FJ-179" style="rounded=1;orthogonalLoop=1;jettySize=auto;html=1;entryX=0;entryY=0.5;entryDx=0;entryDy=0;endArrow=none;endFill=0;" edge="1" parent="1" source="9Mkc4Z1S04Rf9FDKD0FJ-180" target="9Mkc4Z1S04Rf9FDKD0FJ-184">
          <mxGeometry relative="1" as="geometry" />
        </mxCell>
        <mxCell id="9Mkc4Z1S04Rf9FDKD0FJ-180" value="Cargo" style="whiteSpace=wrap;html=1;align=center;" vertex="1" parent="1">
          <mxGeometry x="960" y="1900" width="100" height="40" as="geometry" />
        </mxCell>
        <mxCell id="9Mkc4Z1S04Rf9FDKD0FJ-181" value="Nome" style="ellipse;whiteSpace=wrap;html=1;align=center;" vertex="1" parent="1">
          <mxGeometry x="920" y="2065" width="100" height="40" as="geometry" />
        </mxCell>
        <mxCell id="9Mkc4Z1S04Rf9FDKD0FJ-182" value="" style="rounded=1;orthogonalLoop=1;jettySize=auto;html=1;endArrow=none;endFill=0;" edge="1" parent="1" source="9Mkc4Z1S04Rf9FDKD0FJ-183" target="9Mkc4Z1S04Rf9FDKD0FJ-180">
          <mxGeometry relative="1" as="geometry" />
        </mxCell>
        <mxCell id="9Mkc4Z1S04Rf9FDKD0FJ-183" value="Sálario Base" style="ellipse;whiteSpace=wrap;html=1;align=center;" vertex="1" parent="1">
          <mxGeometry x="760" y="2010" width="100" height="40" as="geometry" />
        </mxCell>
        <mxCell id="9Mkc4Z1S04Rf9FDKD0FJ-184" value="Sigla" style="ellipse;whiteSpace=wrap;html=1;align=center;" vertex="1" parent="1">
          <mxGeometry x="1070" y="2020" width="100" height="40" as="geometry" />
        </mxCell>
      </root>
    </mxGraphModel>
  </diagram>
</mxfile>
